# xmcd
#
# Track frame offsets:
#	150
#	16442
#	34447
#	48669
#	67339
#	84153
#	103395
#	117221
#	131487
#	149449
#	166340
#	190795
#	201921
#	216102
#
# Disc length: 3081 seconds
#
# Revision: 1
# Processed by: cddbd v1.5.2PL0 Copyright (c) Steve Scherf et al.
# Submitted via: audiograbber 1.83.01
#
DISCID=d60c070e
DTITLE=Nina Simone - The Essential Nina Simone
DYEAR=1900
DGENRE=Oldies
TTITLE0=My Baby Just Cares For Me
TTITLE1=Mood Indigo
TTITLE2=He's Got The Whole World In His Hands
TTITLE3=I Loves You Porgy
TTITLE4=Plain Gold Ring
TTITLE5=Little Girl Blue
TTITLE6=Central Park Blues
TTITLE7=Don't Smoke In Bed
TTITLE8=For All We Know
TTITLE9=You'll Never Walk Alone
TTITLE10=Good Bait
TTITLE11=He Needs Me
TTITLE12=African Mailman
TTITLE13=Love Me Or Leave Me
EXTD=
EXTT0=
EXTT1=
EXTT2=
EXTT3=
EXTT4=
EXTT5=
EXTT6=
EXTT7=
EXTT8=
EXTT9=
EXTT10=
EXTT11=
EXTT12=
EXTT13=
PLAYORDER=
